<mxfile host="app.diagrams.net" agent="Mozilla/5.0 (Macintosh; Intel Mac OS X 10_15_7) AppleWebKit/537.36 (KHTML, like Gecko) Chrome/136.0.0.0 Safari/537.36" version="27.1.1">
  <diagram id="EAYRoF7mH9bX6aVEGCmr" name="ページ1">
    <mxGraphModel dx="1018" dy="636" grid="1" gridSize="10" guides="1" tooltips="1" connect="1" arrows="1" fold="1" page="1" pageScale="1" pageWidth="827" pageHeight="1169" math="0" shadow="0">
      <root>
        <mxCell id="0" />
        <mxCell id="1" parent="0" />
        <mxCell id="2k1o5XrDo-2XM2uCgse8-28" value="自社ECメインブランド" style="verticalLabelPosition=bottom;html=1;verticalAlign=top;align=center;strokeColor=none;fillColor=#00BEF2;shape=mxgraph.azure.website_generic;pointerEvents=1;" parent="1" vertex="1">
          <mxGeometry x="40" y="10" width="50" height="42.5" as="geometry" />
        </mxCell>
        <mxCell id="2k1o5XrDo-2XM2uCgse8-29" value="" style="endArrow=classic;html=1;rounded=0;exitX=0.92;exitY=0.5;exitDx=0;exitDy=0;entryX=0;entryY=0.5;entryDx=0;entryDy=0;entryPerimeter=0;exitPerimeter=0;" parent="1" source="2k1o5XrDo-2XM2uCgse8-33" target="2k1o5XrDo-2XM2uCgse8-50" edge="1">
          <mxGeometry width="50" height="50" relative="1" as="geometry">
            <mxPoint x="270" y="310" as="sourcePoint" />
            <mxPoint x="440" y="220" as="targetPoint" />
          </mxGeometry>
        </mxCell>
        <mxCell id="2k1o5XrDo-2XM2uCgse8-31" value="" style="endArrow=classic;html=1;rounded=0;exitX=0.92;exitY=0.5;exitDx=0;exitDy=0;exitPerimeter=0;entryX=0;entryY=0.5;entryDx=0;entryDy=0;entryPerimeter=0;" parent="1" source="2k1o5XrDo-2XM2uCgse8-28" target="2k1o5XrDo-2XM2uCgse8-50" edge="1">
          <mxGeometry width="50" height="50" relative="1" as="geometry">
            <mxPoint x="143" y="88.75250000000004" as="sourcePoint" />
            <mxPoint x="390" y="81" as="targetPoint" />
          </mxGeometry>
        </mxCell>
        <mxCell id="2k1o5XrDo-2XM2uCgse8-33" value="自社ECサブブランド" style="verticalLabelPosition=bottom;html=1;verticalAlign=top;align=center;strokeColor=none;fillColor=#00BEF2;shape=mxgraph.azure.website_generic;pointerEvents=1;" parent="1" vertex="1">
          <mxGeometry x="40" y="77.5" width="50" height="42.5" as="geometry" />
        </mxCell>
        <mxCell id="2k1o5XrDo-2XM2uCgse8-35" value="" style="curved=1;endArrow=classic;html=1;rounded=0;" parent="1" edge="1">
          <mxGeometry width="50" height="50" relative="1" as="geometry">
            <mxPoint x="340" y="160" as="sourcePoint" />
            <mxPoint x="310" y="160" as="targetPoint" />
            <Array as="points">
              <mxPoint x="280" y="230" />
            </Array>
          </mxGeometry>
        </mxCell>
        <mxCell id="2k1o5XrDo-2XM2uCgse8-36" value="" style="swimlane;startSize=0;" parent="1" vertex="1">
          <mxGeometry x="120" y="372" width="589" height="398" as="geometry" />
        </mxCell>
        <mxCell id="lspvEYtXXwZUeJMP6_tq-6" value="AWS WAF" style="sketch=0;points=[[0,0,0],[0.25,0,0],[0.5,0,0],[0.75,0,0],[1,0,0],[0,1,0],[0.25,1,0],[0.5,1,0],[0.75,1,0],[1,1,0],[0,0.25,0],[0,0.5,0],[0,0.75,0],[1,0.25,0],[1,0.5,0],[1,0.75,0]];outlineConnect=0;fontColor=#232F3E;fillColor=#DD344C;strokeColor=#ffffff;dashed=0;verticalLabelPosition=bottom;verticalAlign=top;align=center;html=1;fontSize=12;fontStyle=0;aspect=fixed;shape=mxgraph.aws4.resourceIcon;resIcon=mxgraph.aws4.waf;" vertex="1" parent="2k1o5XrDo-2XM2uCgse8-36">
          <mxGeometry x="80" y="268" width="78" height="78" as="geometry" />
        </mxCell>
        <mxCell id="lspvEYtXXwZUeJMP6_tq-7" value="Amazon Cognito&lt;div&gt;UserPool&lt;/div&gt;" style="sketch=0;points=[[0,0,0],[0.25,0,0],[0.5,0,0],[0.75,0,0],[1,0,0],[0,1,0],[0.25,1,0],[0.5,1,0],[0.75,1,0],[1,1,0],[0,0.25,0],[0,0.5,0],[0,0.75,0],[1,0.25,0],[1,0.5,0],[1,0.75,0]];outlineConnect=0;fontColor=#232F3E;fillColor=#DD344C;strokeColor=#ffffff;dashed=0;verticalLabelPosition=bottom;verticalAlign=top;align=center;html=1;fontSize=12;fontStyle=0;aspect=fixed;shape=mxgraph.aws4.resourceIcon;resIcon=mxgraph.aws4.cognito;" vertex="1" parent="2k1o5XrDo-2XM2uCgse8-36">
          <mxGeometry x="80" y="28" width="78" height="78" as="geometry" />
        </mxCell>
        <mxCell id="2k1o5XrDo-2XM2uCgse8-37" value="AWS Lambda&lt;div&gt;WebBackend&lt;/div&gt;" style="sketch=0;points=[[0,0,0],[0.25,0,0],[0.5,0,0],[0.75,0,0],[1,0,0],[0,1,0],[0.25,1,0],[0.5,1,0],[0.75,1,0],[1,1,0],[0,0.25,0],[0,0.5,0],[0,0.75,0],[1,0.25,0],[1,0.5,0],[1,0.75,0]];outlineConnect=0;fontColor=#232F3E;fillColor=#ED7100;strokeColor=#ffffff;dashed=0;verticalLabelPosition=bottom;verticalAlign=top;align=center;html=1;fontSize=12;fontStyle=0;aspect=fixed;shape=mxgraph.aws4.resourceIcon;resIcon=mxgraph.aws4.lambda;" parent="2k1o5XrDo-2XM2uCgse8-36" vertex="1">
          <mxGeometry x="320" y="148" width="78" height="78" as="geometry" />
        </mxCell>
        <mxCell id="2k1o5XrDo-2XM2uCgse8-38" value="Amazon S3&lt;div&gt;Frontend実装ホスト&lt;/div&gt;" style="sketch=0;points=[[0,0,0],[0.25,0,0],[0.5,0,0],[0.75,0,0],[1,0,0],[0,1,0],[0.25,1,0],[0.5,1,0],[0.75,1,0],[1,1,0],[0,0.25,0],[0,0.5,0],[0,0.75,0],[1,0.25,0],[1,0.5,0],[1,0.75,0]];outlineConnect=0;fontColor=#232F3E;fillColor=#7AA116;strokeColor=#ffffff;dashed=0;verticalLabelPosition=bottom;verticalAlign=top;align=center;html=1;fontSize=12;fontStyle=0;aspect=fixed;shape=mxgraph.aws4.resourceIcon;resIcon=mxgraph.aws4.s3;" parent="2k1o5XrDo-2XM2uCgse8-36" vertex="1">
          <mxGeometry x="320" y="268" width="78" height="78" as="geometry" />
        </mxCell>
        <mxCell id="2k1o5XrDo-2XM2uCgse8-39" value="Amazon CloudFront&lt;div&gt;Frontend実装配信&lt;/div&gt;" style="sketch=0;points=[[0,0,0],[0.25,0,0],[0.5,0,0],[0.75,0,0],[1,0,0],[0,1,0],[0.25,1,0],[0.5,1,0],[0.75,1,0],[1,1,0],[0,0.25,0],[0,0.5,0],[0,0.75,0],[1,0.25,0],[1,0.5,0],[1,0.75,0]];outlineConnect=0;fontColor=#232F3E;fillColor=#8C4FFF;strokeColor=#ffffff;dashed=0;verticalLabelPosition=bottom;verticalAlign=top;align=center;html=1;fontSize=12;fontStyle=0;aspect=fixed;shape=mxgraph.aws4.resourceIcon;resIcon=mxgraph.aws4.cloudfront;" parent="2k1o5XrDo-2XM2uCgse8-36" vertex="1">
          <mxGeometry x="198" y="268" width="78" height="78" as="geometry" />
        </mxCell>
        <mxCell id="2k1o5XrDo-2XM2uCgse8-40" value="" style="endArrow=classic;html=1;rounded=0;exitX=0;exitY=0.5;exitDx=0;exitDy=0;exitPerimeter=0;entryX=1;entryY=0.5;entryDx=0;entryDy=0;entryPerimeter=0;" parent="2k1o5XrDo-2XM2uCgse8-36" source="2k1o5XrDo-2XM2uCgse8-38" target="2k1o5XrDo-2XM2uCgse8-39" edge="1">
          <mxGeometry width="50" height="50" relative="1" as="geometry">
            <mxPoint x="208" y="197" as="sourcePoint" />
            <mxPoint x="471" y="197" as="targetPoint" />
          </mxGeometry>
        </mxCell>
        <mxCell id="2k1o5XrDo-2XM2uCgse8-42" value="AWS API Gateway&lt;div&gt;Websocket&lt;/div&gt;" style="sketch=0;points=[[0,0,0],[0.25,0,0],[0.5,0,0],[0.75,0,0],[1,0,0],[0,1,0],[0.25,1,0],[0.5,1,0],[0.75,1,0],[1,1,0],[0,0.25,0],[0,0.5,0],[0,0.75,0],[1,0.25,0],[1,0.5,0],[1,0.75,0]];outlineConnect=0;fontColor=#232F3E;fillColor=#E7157B;strokeColor=#ffffff;dashed=0;verticalLabelPosition=bottom;verticalAlign=top;align=center;html=1;fontSize=12;fontStyle=0;aspect=fixed;shape=mxgraph.aws4.resourceIcon;resIcon=mxgraph.aws4.api_gateway;" parent="2k1o5XrDo-2XM2uCgse8-36" vertex="1">
          <mxGeometry x="190" y="148" width="78" height="78" as="geometry" />
        </mxCell>
        <mxCell id="2k1o5XrDo-2XM2uCgse8-43" value="" style="endArrow=classic;html=1;rounded=0;exitX=1;exitY=0.5;exitDx=0;exitDy=0;exitPerimeter=0;entryX=0;entryY=0.5;entryDx=0;entryDy=0;entryPerimeter=0;" parent="2k1o5XrDo-2XM2uCgse8-36" source="2k1o5XrDo-2XM2uCgse8-42" target="2k1o5XrDo-2XM2uCgse8-37" edge="1">
          <mxGeometry width="50" height="50" relative="1" as="geometry">
            <mxPoint x="230" y="292" as="sourcePoint" />
            <mxPoint x="379" y="218" as="targetPoint" />
          </mxGeometry>
        </mxCell>
        <mxCell id="2k1o5XrDo-2XM2uCgse8-44" value="AWS Lambda&lt;div&gt;AgentProcessor&lt;/div&gt;" style="sketch=0;points=[[0,0,0],[0.25,0,0],[0.5,0,0],[0.75,0,0],[1,0,0],[0,1,0],[0.25,1,0],[0.5,1,0],[0.75,1,0],[1,1,0],[0,0.25,0],[0,0.5,0],[0,0.75,0],[1,0.25,0],[1,0.5,0],[1,0.75,0]];outlineConnect=0;fontColor=#232F3E;fillColor=#ED7100;strokeColor=#ffffff;dashed=0;verticalLabelPosition=bottom;verticalAlign=top;align=center;html=1;fontSize=12;fontStyle=0;aspect=fixed;shape=mxgraph.aws4.resourceIcon;resIcon=mxgraph.aws4.lambda;" parent="2k1o5XrDo-2XM2uCgse8-36" vertex="1">
          <mxGeometry x="460" y="148" width="78" height="78" as="geometry" />
        </mxCell>
        <mxCell id="2k1o5XrDo-2XM2uCgse8-58" value="" style="endArrow=classic;html=1;rounded=0;entryX=0;entryY=0.5;entryDx=0;entryDy=0;entryPerimeter=0;exitX=1;exitY=0.5;exitDx=0;exitDy=0;exitPerimeter=0;" parent="2k1o5XrDo-2XM2uCgse8-36" target="2k1o5XrDo-2XM2uCgse8-44" edge="1" source="2k1o5XrDo-2XM2uCgse8-37">
          <mxGeometry width="50" height="50" relative="1" as="geometry">
            <mxPoint x="420" y="188" as="sourcePoint" />
            <mxPoint x="402" y="178" as="targetPoint" />
          </mxGeometry>
        </mxCell>
        <mxCell id="2k1o5XrDo-2XM2uCgse8-59" value="Async" style="edgeLabel;html=1;align=center;verticalAlign=middle;resizable=0;points=[];" parent="2k1o5XrDo-2XM2uCgse8-58" vertex="1" connectable="0">
          <mxGeometry x="-0.1341" y="-1" relative="1" as="geometry">
            <mxPoint as="offset" />
          </mxGeometry>
        </mxCell>
        <mxCell id="lspvEYtXXwZUeJMP6_tq-9" value="AWS Lambda&lt;div&gt;Authorizer&lt;/div&gt;" style="sketch=0;points=[[0,0,0],[0.25,0,0],[0.5,0,0],[0.75,0,0],[1,0,0],[0,1,0],[0.25,1,0],[0.5,1,0],[0.75,1,0],[1,1,0],[0,0.25,0],[0,0.5,0],[0,0.75,0],[1,0.25,0],[1,0.5,0],[1,0.75,0]];outlineConnect=0;fontColor=#232F3E;fillColor=#ED7100;strokeColor=#ffffff;dashed=0;verticalLabelPosition=bottom;verticalAlign=top;align=center;html=1;fontSize=12;fontStyle=0;aspect=fixed;shape=mxgraph.aws4.resourceIcon;resIcon=mxgraph.aws4.lambda;" vertex="1" parent="2k1o5XrDo-2XM2uCgse8-36">
          <mxGeometry x="170" y="28" width="78" height="78" as="geometry" />
        </mxCell>
        <mxCell id="lspvEYtXXwZUeJMP6_tq-20" value="DynamoDB&lt;div&gt;Agentのsession&lt;/div&gt;" style="sketch=0;points=[[0,0,0],[0.25,0,0],[0.5,0,0],[0.75,0,0],[1,0,0],[0,1,0],[0.25,1,0],[0.5,1,0],[0.75,1,0],[1,1,0],[0,0.25,0],[0,0.5,0],[0,0.75,0],[1,0.25,0],[1,0.5,0],[1,0.75,0]];outlineConnect=0;fontColor=#232F3E;fillColor=#C925D1;strokeColor=#ffffff;dashed=0;verticalLabelPosition=bottom;verticalAlign=top;align=center;html=1;fontSize=12;fontStyle=0;aspect=fixed;shape=mxgraph.aws4.resourceIcon;resIcon=mxgraph.aws4.dynamodb;" vertex="1" parent="2k1o5XrDo-2XM2uCgse8-36">
          <mxGeometry x="460" y="268" width="78" height="78" as="geometry" />
        </mxCell>
        <mxCell id="2k1o5XrDo-2XM2uCgse8-45" value="" style="shape=actor;whiteSpace=wrap;html=1;" parent="1" vertex="1">
          <mxGeometry x="40" y="560" width="40" height="60" as="geometry" />
        </mxCell>
        <mxCell id="2k1o5XrDo-2XM2uCgse8-46" value="" style="endArrow=classic;html=1;rounded=0;entryX=0;entryY=0.5;entryDx=0;entryDy=0;entryPerimeter=0;exitX=1.025;exitY=0.65;exitDx=0;exitDy=0;exitPerimeter=0;" parent="1" source="2k1o5XrDo-2XM2uCgse8-45" target="2k1o5XrDo-2XM2uCgse8-39" edge="1">
          <mxGeometry width="50" height="50" relative="1" as="geometry">
            <mxPoint x="100" y="510" as="sourcePoint" />
            <mxPoint x="230" y="479" as="targetPoint" />
          </mxGeometry>
        </mxCell>
        <mxCell id="2k1o5XrDo-2XM2uCgse8-47" value="ユーザ" style="text;html=1;align=center;verticalAlign=middle;resizable=0;points=[];autosize=1;strokeColor=none;fillColor=none;" parent="1" vertex="1">
          <mxGeometry x="30" y="620" width="60" height="30" as="geometry" />
        </mxCell>
        <mxCell id="2k1o5XrDo-2XM2uCgse8-48" value="" style="endArrow=classic;html=1;rounded=0;entryX=0.5;entryY=1;entryDx=0;entryDy=0;entryPerimeter=0;" parent="1" source="2k1o5XrDo-2XM2uCgse8-44" target="2k1o5XrDo-2XM2uCgse8-52" edge="1">
          <mxGeometry width="50" height="50" relative="1" as="geometry">
            <mxPoint x="599" y="400" as="sourcePoint" />
            <mxPoint x="760" y="220" as="targetPoint" />
          </mxGeometry>
        </mxCell>
        <mxCell id="2k1o5XrDo-2XM2uCgse8-49" value="SQL実行" style="edgeLabel;html=1;align=center;verticalAlign=middle;resizable=0;points=[];" parent="2k1o5XrDo-2XM2uCgse8-48" vertex="1" connectable="0">
          <mxGeometry x="0.1012" y="-3" relative="1" as="geometry">
            <mxPoint as="offset" />
          </mxGeometry>
        </mxCell>
        <mxCell id="2k1o5XrDo-2XM2uCgse8-50" value="Amazon S3&lt;div&gt;data bucket&lt;/div&gt;" style="sketch=0;points=[[0,0,0],[0.25,0,0],[0.5,0,0],[0.75,0,0],[1,0,0],[0,1,0],[0.25,1,0],[0.5,1,0],[0.75,1,0],[1,1,0],[0,0.25,0],[0,0.5,0],[0,0.75,0],[1,0.25,0],[1,0.5,0],[1,0.75,0]];outlineConnect=0;fontColor=#232F3E;fillColor=#7AA116;strokeColor=#ffffff;dashed=0;verticalLabelPosition=bottom;verticalAlign=top;align=center;html=1;fontSize=12;fontStyle=0;aspect=fixed;shape=mxgraph.aws4.resourceIcon;resIcon=mxgraph.aws4.s3;" parent="1" vertex="1">
          <mxGeometry x="310" y="42" width="78" height="78" as="geometry" />
        </mxCell>
        <mxCell id="2k1o5XrDo-2XM2uCgse8-51" value="" style="curved=1;endArrow=classic;html=1;rounded=0;" parent="1" edge="1">
          <mxGeometry width="50" height="50" relative="1" as="geometry">
            <mxPoint x="350" y="160" as="sourcePoint" />
            <mxPoint x="390" y="150" as="targetPoint" />
            <Array as="points">
              <mxPoint x="410" y="220" />
            </Array>
          </mxGeometry>
        </mxCell>
        <mxCell id="2k1o5XrDo-2XM2uCgse8-52" value="Amazon Athena" style="sketch=0;points=[[0,0,0],[0.25,0,0],[0.5,0,0],[0.75,0,0],[1,0,0],[0,1,0],[0.25,1,0],[0.5,1,0],[0.75,1,0],[1,1,0],[0,0.25,0],[0,0.5,0],[0,0.75,0],[1,0.25,0],[1,0.5,0],[1,0.75,0]];outlineConnect=0;fontColor=#232F3E;fillColor=#8C4FFF;strokeColor=#ffffff;dashed=0;verticalLabelPosition=bottom;verticalAlign=top;align=center;html=1;fontSize=12;fontStyle=0;aspect=fixed;shape=mxgraph.aws4.resourceIcon;resIcon=mxgraph.aws4.athena;" parent="1" vertex="1">
          <mxGeometry x="580" y="42" width="78" height="78" as="geometry" />
        </mxCell>
        <mxCell id="2k1o5XrDo-2XM2uCgse8-53" value="" style="endArrow=classic;html=1;rounded=0;entryX=1;entryY=0.5;entryDx=0;entryDy=0;entryPerimeter=0;" parent="1" source="2k1o5XrDo-2XM2uCgse8-52" target="2k1o5XrDo-2XM2uCgse8-50" edge="1">
          <mxGeometry width="50" height="50" relative="1" as="geometry">
            <mxPoint x="611" y="460" as="sourcePoint" />
            <mxPoint x="610" y="180" as="targetPoint" />
          </mxGeometry>
        </mxCell>
        <mxCell id="2k1o5XrDo-2XM2uCgse8-54" value="Data Storage" style="edgeLabel;html=1;align=center;verticalAlign=middle;resizable=0;points=[];" parent="2k1o5XrDo-2XM2uCgse8-53" vertex="1" connectable="0">
          <mxGeometry x="0.1012" y="-3" relative="1" as="geometry">
            <mxPoint as="offset" />
          </mxGeometry>
        </mxCell>
        <mxCell id="2k1o5XrDo-2XM2uCgse8-55" value="" style="endArrow=classic;html=1;rounded=0;entryX=0;entryY=0.5;entryDx=0;entryDy=0;entryPerimeter=0;" parent="1" source="2k1o5XrDo-2XM2uCgse8-44" target="2k1o5XrDo-2XM2uCgse8-56" edge="1">
          <mxGeometry width="50" height="50" relative="1" as="geometry">
            <mxPoint x="620" y="400" as="sourcePoint" />
            <mxPoint x="619" y="120" as="targetPoint" />
          </mxGeometry>
        </mxCell>
        <mxCell id="2k1o5XrDo-2XM2uCgse8-60" value="Strands Agent" style="edgeLabel;html=1;align=center;verticalAlign=middle;resizable=0;points=[];" parent="2k1o5XrDo-2XM2uCgse8-55" vertex="1" connectable="0">
          <mxGeometry x="-0.0984" y="-1" relative="1" as="geometry">
            <mxPoint as="offset" />
          </mxGeometry>
        </mxCell>
        <mxCell id="2k1o5XrDo-2XM2uCgse8-56" value="Amazon Bedrock" style="sketch=0;points=[[0,0,0],[0.25,0,0],[0.5,0,0],[0.75,0,0],[1,0,0],[0,1,0],[0.25,1,0],[0.5,1,0],[0.75,1,0],[1,1,0],[0,0.25,0],[0,0.5,0],[0,0.75,0],[1,0.25,0],[1,0.5,0],[1,0.75,0]];outlineConnect=0;fontColor=#232F3E;fillColor=#01A88D;strokeColor=#ffffff;dashed=0;verticalLabelPosition=bottom;verticalAlign=top;align=center;html=1;fontSize=12;fontStyle=0;aspect=fixed;shape=mxgraph.aws4.resourceIcon;resIcon=mxgraph.aws4.bedrock;" parent="1" vertex="1">
          <mxGeometry x="730" y="430" width="78" height="78" as="geometry" />
        </mxCell>
        <mxCell id="2k1o5XrDo-2XM2uCgse8-57" value="" style="endArrow=classic;html=1;rounded=0;exitX=1.025;exitY=0.617;exitDx=0;exitDy=0;exitPerimeter=0;entryX=0;entryY=0.5;entryDx=0;entryDy=0;entryPerimeter=0;" parent="1" source="2k1o5XrDo-2XM2uCgse8-45" target="2k1o5XrDo-2XM2uCgse8-42" edge="1">
          <mxGeometry width="50" height="50" relative="1" as="geometry">
            <mxPoint x="318" y="439" as="sourcePoint" />
            <mxPoint x="499" y="403" as="targetPoint" />
          </mxGeometry>
        </mxCell>
        <mxCell id="lspvEYtXXwZUeJMP6_tq-1" value="AWS Step Functions workflow" style="points=[[0,0],[0.25,0],[0.5,0],[0.75,0],[1,0],[1,0.25],[1,0.5],[1,0.75],[1,1],[0.75,1],[0.5,1],[0.25,1],[0,1],[0,0.75],[0,0.5],[0,0.25]];outlineConnect=0;gradientColor=none;html=1;whiteSpace=wrap;fontSize=12;fontStyle=0;container=1;pointerEvents=0;collapsible=0;recursiveResize=0;shape=mxgraph.aws4.group;grIcon=mxgraph.aws4.group_aws_step_functions_workflow;strokeColor=#CD2264;fillColor=none;verticalAlign=top;align=left;spacingLeft=30;fontColor=#CD2264;dashed=0;" vertex="1" parent="1">
          <mxGeometry x="120" y="160" width="480" height="190" as="geometry" />
        </mxCell>
        <mxCell id="lspvEYtXXwZUeJMP6_tq-5" value="" style="sketch=0;points=[[0,0,0],[0.25,0,0],[0.5,0,0],[0.75,0,0],[1,0,0],[0,1,0],[0.25,1,0],[0.5,1,0],[0.75,1,0],[1,1,0],[0,0.25,0],[0,0.5,0],[0,0.75,0],[1,0.25,0],[1,0.5,0],[1,0.75,0]];outlineConnect=0;fontColor=#232F3E;fillColor=#ED7100;strokeColor=#ffffff;dashed=0;verticalLabelPosition=bottom;verticalAlign=top;align=center;html=1;fontSize=12;fontStyle=0;aspect=fixed;shape=mxgraph.aws4.resourceIcon;resIcon=mxgraph.aws4.lambda;" vertex="1" parent="lspvEYtXXwZUeJMP6_tq-1">
          <mxGeometry x="10" y="30" width="78" height="78" as="geometry" />
        </mxCell>
        <mxCell id="2k1o5XrDo-2XM2uCgse8-32" value="Amazon Personalize&lt;div&gt;item-affinity&lt;/div&gt;" style="sketch=0;points=[[0,0,0],[0.25,0,0],[0.5,0,0],[0.75,0,0],[1,0,0],[0,1,0],[0.25,1,0],[0.5,1,0],[0.75,1,0],[1,1,0],[0,0.25,0],[0,0.5,0],[0,0.75,0],[1,0.25,0],[1,0.5,0],[1,0.75,0]];outlineConnect=0;fontColor=#232F3E;fillColor=#01A88D;strokeColor=#ffffff;dashed=0;verticalLabelPosition=bottom;verticalAlign=top;align=center;html=1;fontSize=12;fontStyle=0;aspect=fixed;shape=mxgraph.aws4.resourceIcon;resIcon=mxgraph.aws4.personalize;" parent="lspvEYtXXwZUeJMP6_tq-1" vertex="1">
          <mxGeometry x="260" y="40" width="78" height="78" as="geometry" />
        </mxCell>
        <mxCell id="2k1o5XrDo-2XM2uCgse8-34" value="AWS Entity Resolution&lt;div&gt;顧客データ統合&lt;/div&gt;" style="sketch=0;points=[[0,0,0],[0.25,0,0],[0.5,0,0],[0.75,0,0],[1,0,0],[0,1,0],[0.25,1,0],[0.5,1,0],[0.75,1,0],[1,1,0],[0,0.25,0],[0,0.5,0],[0,0.75,0],[1,0.25,0],[1,0.5,0],[1,0.75,0]];outlineConnect=0;fontColor=#232F3E;fillColor=#8C4FFF;strokeColor=#ffffff;dashed=0;verticalLabelPosition=bottom;verticalAlign=top;align=center;html=1;fontSize=12;fontStyle=0;aspect=fixed;shape=mxgraph.aws4.resourceIcon;resIcon=mxgraph.aws4.entity_resolution;" parent="lspvEYtXXwZUeJMP6_tq-1" vertex="1">
          <mxGeometry x="140" y="40" width="78" height="78" as="geometry" />
        </mxCell>
        <mxCell id="lspvEYtXXwZUeJMP6_tq-19" value="Amazon S3&lt;div&gt;中間ファイル&lt;/div&gt;" style="sketch=0;points=[[0,0,0],[0.25,0,0],[0.5,0,0],[0.75,0,0],[1,0,0],[0,1,0],[0.25,1,0],[0.5,1,0],[0.75,1,0],[1,1,0],[0,0.25,0],[0,0.5,0],[0,0.75,0],[1,0.25,0],[1,0.5,0],[1,0.75,0]];outlineConnect=0;fontColor=#232F3E;fillColor=#7AA116;strokeColor=#ffffff;dashed=0;verticalLabelPosition=bottom;verticalAlign=top;align=center;html=1;fontSize=12;fontStyle=0;aspect=fixed;shape=mxgraph.aws4.resourceIcon;resIcon=mxgraph.aws4.s3;" vertex="1" parent="lspvEYtXXwZUeJMP6_tq-1">
          <mxGeometry x="380" y="40" width="78" height="78" as="geometry" />
        </mxCell>
        <mxCell id="lspvEYtXXwZUeJMP6_tq-24" value="AWS Lambda&lt;div&gt;ワークフロー制御&lt;/div&gt;" style="sketch=0;points=[[0,0,0],[0.25,0,0],[0.5,0,0],[0.75,0,0],[1,0,0],[0,1,0],[0.25,1,0],[0.5,1,0],[0.75,1,0],[1,1,0],[0,0.25,0],[0,0.5,0],[0,0.75,0],[1,0.25,0],[1,0.5,0],[1,0.75,0]];outlineConnect=0;fontColor=#232F3E;fillColor=#ED7100;strokeColor=#ffffff;dashed=0;verticalLabelPosition=bottom;verticalAlign=top;align=center;html=1;fontSize=12;fontStyle=0;aspect=fixed;shape=mxgraph.aws4.resourceIcon;resIcon=mxgraph.aws4.lambda;" vertex="1" parent="lspvEYtXXwZUeJMP6_tq-1">
          <mxGeometry x="20" y="40" width="78" height="78" as="geometry" />
        </mxCell>
        <mxCell id="2k1o5XrDo-2XM2uCgse8-41" value="Web UI" style="text;html=1;align=center;verticalAlign=middle;resizable=0;points=[];autosize=1;strokeColor=none;fillColor=none;" parent="1" vertex="1">
          <mxGeometry x="135" y="370" width="60" height="30" as="geometry" />
        </mxCell>
        <mxCell id="lspvEYtXXwZUeJMP6_tq-10" value="" style="endArrow=classic;html=1;rounded=0;exitX=1;exitY=0.617;exitDx=0;exitDy=0;exitPerimeter=0;entryX=0;entryY=0.5;entryDx=0;entryDy=0;entryPerimeter=0;" edge="1" parent="1" source="2k1o5XrDo-2XM2uCgse8-45" target="lspvEYtXXwZUeJMP6_tq-7">
          <mxGeometry width="50" height="50" relative="1" as="geometry">
            <mxPoint x="290" y="628" as="sourcePoint" />
            <mxPoint x="519" y="560" as="targetPoint" />
          </mxGeometry>
        </mxCell>
        <mxCell id="lspvEYtXXwZUeJMP6_tq-11" value="Amazon S3&lt;div&gt;athenaResultBucket&lt;/div&gt;" style="sketch=0;points=[[0,0,0],[0.25,0,0],[0.5,0,0],[0.75,0,0],[1,0,0],[0,1,0],[0.25,1,0],[0.5,1,0],[0.75,1,0],[1,1,0],[0,0.25,0],[0,0.5,0],[0,0.75,0],[1,0.25,0],[1,0.5,0],[1,0.75,0]];outlineConnect=0;fontColor=#232F3E;fillColor=#7AA116;strokeColor=#ffffff;dashed=0;verticalLabelPosition=bottom;verticalAlign=top;align=center;html=1;fontSize=12;fontStyle=0;aspect=fixed;shape=mxgraph.aws4.resourceIcon;resIcon=mxgraph.aws4.s3;" vertex="1" parent="1">
          <mxGeometry x="730" y="210" width="78" height="78" as="geometry" />
        </mxCell>
        <mxCell id="lspvEYtXXwZUeJMP6_tq-14" value="" style="endArrow=classic;html=1;rounded=0;exitX=0.5;exitY=0;exitDx=0;exitDy=0;exitPerimeter=0;entryX=0;entryY=1;entryDx=0;entryDy=0;entryPerimeter=0;" edge="1" parent="1" source="2k1o5XrDo-2XM2uCgse8-44" target="lspvEYtXXwZUeJMP6_tq-11">
          <mxGeometry width="50" height="50" relative="1" as="geometry">
            <mxPoint x="610" y="890" as="sourcePoint" />
            <mxPoint x="730" y="230" as="targetPoint" />
          </mxGeometry>
        </mxCell>
        <mxCell id="lspvEYtXXwZUeJMP6_tq-15" value="CSVファイル&lt;div&gt;PresignedURL生成&lt;/div&gt;" style="edgeLabel;html=1;align=center;verticalAlign=middle;resizable=0;points=[];" vertex="1" connectable="0" parent="lspvEYtXXwZUeJMP6_tq-14">
          <mxGeometry x="0.1012" y="-3" relative="1" as="geometry">
            <mxPoint as="offset" />
          </mxGeometry>
        </mxCell>
        <mxCell id="lspvEYtXXwZUeJMP6_tq-16" value="" style="endArrow=classic;html=1;rounded=0;exitX=1;exitY=0.5;exitDx=0;exitDy=0;exitPerimeter=0;" edge="1" parent="1" source="2k1o5XrDo-2XM2uCgse8-52" target="lspvEYtXXwZUeJMP6_tq-11">
          <mxGeometry width="50" height="50" relative="1" as="geometry">
            <mxPoint x="722" y="80" as="sourcePoint" />
            <mxPoint x="690" y="120" as="targetPoint" />
          </mxGeometry>
        </mxCell>
        <mxCell id="lspvEYtXXwZUeJMP6_tq-17" value="結果" style="edgeLabel;html=1;align=center;verticalAlign=middle;resizable=0;points=[];" vertex="1" connectable="0" parent="lspvEYtXXwZUeJMP6_tq-16">
          <mxGeometry x="0.1012" y="-3" relative="1" as="geometry">
            <mxPoint as="offset" />
          </mxGeometry>
        </mxCell>
        <mxCell id="lspvEYtXXwZUeJMP6_tq-22" value="AWS Glue&lt;div&gt;databaseスキーマ&lt;/div&gt;" style="sketch=0;points=[[0,0,0],[0.25,0,0],[0.5,0,0],[0.75,0,0],[1,0,0],[0,1,0],[0.25,1,0],[0.5,1,0],[0.75,1,0],[1,1,0],[0,0.25,0],[0,0.5,0],[0,0.75,0],[1,0.25,0],[1,0.5,0],[1,0.75,0]];outlineConnect=0;fontColor=#232F3E;fillColor=#8C4FFF;strokeColor=#ffffff;dashed=0;verticalLabelPosition=bottom;verticalAlign=top;align=center;html=1;fontSize=12;fontStyle=0;aspect=fixed;shape=mxgraph.aws4.resourceIcon;resIcon=mxgraph.aws4.glue;" vertex="1" parent="1">
          <mxGeometry x="700" y="10" width="78" height="78" as="geometry" />
        </mxCell>
      </root>
    </mxGraphModel>
  </diagram>
</mxfile>
